<svg width="20" height="22" viewBox="0 0 20 22" fill="none" xmlns="http://www.w3.org/2000/svg">
<path d="M10 0C10.5249 0 11.0401 0.138725 11.4951 0.400391L11.4961 0.399414L18.4961 4.39941L18.5 4.40234L18.667 4.50586C19.0483 4.76069 19.3673 5.10048 19.5977 5.49902C19.8608 5.95436 19.9994 6.47119 20 6.99707V14.999C19.9995 15.525 19.8608 16.0417 19.5977 16.4971C19.3344 16.9525 18.9555 17.3307 18.5 17.5938L18.4961 17.5967L11.4961 21.5967L11.4951 21.5957C11.0712 21.8395 10.595 21.9746 10.1074 21.9922C10.0721 21.996 10.0363 21.998 10 21.998C9.9647 21.998 9.92987 21.9958 9.89551 21.9922C9.4066 21.9751 8.92882 21.8402 8.50391 21.5957V21.5967L1.50391 17.5967L1.5 17.5938C1.04446 17.3307 0.665593 16.9525 0.402344 16.4971C0.13921 16.0417 0.000547888 15.525 0 14.999V6.99707L0.00683594 6.7998C0.0374338 6.34258 0.172208 5.89731 0.402344 5.49902C0.665585 5.04365 1.04451 4.66537 1.5 4.40234L1.50391 4.39941L8.50391 0.399414V0.400391C8.95907 0.13845 9.47479 0 10 0ZM2 14.9971L2.00879 15.1279C2.026 15.2572 2.06818 15.3825 2.13379 15.4961C2.22076 15.6466 2.34605 15.7718 2.49609 15.8594L9 19.5752V11.5762L2 7.55371V14.9971ZM11 11.5762V19.5752L17.5039 15.8594C17.654 15.7718 17.7792 15.6466 17.8662 15.4961C17.9536 15.3447 17.9996 15.1728 18 14.998V7.55371L11 11.5762ZM10 2C9.82451 2 9.65199 2.04607 9.5 2.13379L9.49609 2.13574L3.02148 5.83398L9.99902 9.84375L16.9766 5.83398L10.5039 2.13574L10.5 2.13379C10.348 2.04607 10.1755 2 10 2Z" fill="white"/>
</svg>
