<svg width="39" height="39" viewBox="0 0 39 39" fill="none" xmlns="http://www.w3.org/2000/svg">
<path d="M19 8.00195C19.5249 8.00195 20.0401 8.14068 20.4951 8.40234L20.4961 8.40137L27.4961 12.4014L27.5 12.4043L27.667 12.5078C28.0483 12.7626 28.3673 13.1024 28.5977 13.501C28.8608 13.9563 28.9994 14.4731 29 14.999V23.001C28.9995 23.5269 28.8608 24.0437 28.5977 24.499C28.3344 24.9544 27.9555 25.3327 27.5 25.5957L27.4961 25.5986L20.4961 29.5986L20.4951 29.5977C20.0712 29.8414 19.595 29.9765 19.1074 29.9941C19.0721 29.9979 19.0363 30 19 30C18.9647 30 18.9299 29.9977 18.8955 29.9941C18.4066 29.977 17.9288 29.8422 17.5039 29.5977V29.5986L10.5039 25.5986L10.5 25.5957C10.0445 25.3327 9.66559 24.9544 9.40234 24.499C9.13921 24.0437 9.00055 23.5269 9 23.001V14.999L9.00684 14.8018C9.03743 14.3445 9.17221 13.8993 9.40234 13.501C9.66558 13.0456 10.0445 12.6673 10.5 12.4043L10.5039 12.4014L17.5039 8.40137V8.40234C17.9591 8.1404 18.4748 8.00195 19 8.00195ZM11 22.999L11.0088 23.1299C11.026 23.2591 11.0682 23.3844 11.1338 23.498C11.2208 23.6485 11.346 23.7738 11.4961 23.8613L18 27.5771V19.5781L11 15.5557V22.999ZM20 19.5781V27.5771L26.5039 23.8613C26.654 23.7738 26.7792 23.6485 26.8662 23.498C26.9536 23.3467 26.9996 23.1748 27 23V15.5557L20 19.5781ZM19 10.002C18.8245 10.002 18.652 10.048 18.5 10.1357L18.4961 10.1377L12.0215 13.8359L18.999 17.8457L25.9766 13.8359L19.5039 10.1377L19.5 10.1357C19.348 10.048 19.1755 10.002 19 10.002Z" fill="white"/>
</svg>
