<svg width="39" height="39" viewBox="0 0 39 39" fill="none" xmlns="http://www.w3.org/2000/svg">
<path d="M27 18C27 22.993 21.461 28.193 19.601 29.799C19.4277 29.9293 19.2168 29.9998 19 29.9998C18.7832 29.9998 18.5723 29.9293 18.399 29.799C16.539 28.193 11 22.993 11 18C11 15.8783 11.8429 13.8434 13.3431 12.3431C14.8434 10.8429 16.8783 10 19 10C21.1217 10 23.1566 10.8429 24.6569 12.3431C26.1571 13.8434 27 15.8783 27 18Z" stroke="white" stroke-width="2" stroke-linecap="round" stroke-linejoin="round"/>
<path d="M19 21C20.6569 21 22 19.6569 22 18C22 16.3431 20.6569 15 19 15C17.3431 15 16 16.3431 16 18C16 19.6569 17.3431 21 19 21Z" stroke="white" stroke-width="2" stroke-linecap="round" stroke-linejoin="round"/>
</svg>
