<svg width="39" height="39" viewBox="0 0 39 39" fill="none" xmlns="http://www.w3.org/2000/svg">
<rect width="39" height="39" fill="#505050"/>
<path d="M32.4588 18.3158L20.6845 6.54232C20.5233 6.38092 20.3319 6.25288 20.1212 6.16553C19.9105 6.07817 19.6846 6.0332 19.4566 6.0332C19.2285 6.0332 19.0026 6.07817 18.7919 6.16553C18.5812 6.25288 18.3898 6.38092 18.2286 6.54232L15.7834 8.98758L18.8843 12.0885C19.2488 11.9647 19.6408 11.9453 20.0158 12.0327C20.3907 12.12 20.7338 12.3105 21.0061 12.5827C21.2799 12.8569 21.4711 13.2025 21.5579 13.5801C21.6447 13.9577 21.6237 14.3521 21.4971 14.7183L24.4856 17.7071C24.8518 17.5799 25.2464 17.5584 25.6242 17.6452C26.0019 17.732 26.3476 17.9235 26.6215 18.1978C26.8134 18.3897 26.9657 18.6174 27.0695 18.8681C27.1734 19.1188 27.2268 19.3875 27.2268 19.6589C27.2268 19.9302 27.1734 20.1989 27.0695 20.4496C26.9657 20.7003 26.8134 20.9281 26.6215 21.12C26.2338 21.5075 25.7081 21.7252 25.1599 21.7252C24.6117 21.7252 24.0859 21.5075 23.6982 21.12C23.4096 20.8316 23.2129 20.4641 23.1329 20.0641C23.0529 19.664 23.0931 19.2491 23.2486 18.8719L20.4605 16.0848V23.4208C20.7548 23.5662 21.0102 23.7796 21.2056 24.0433C21.401 24.307 21.5307 24.6135 21.5841 24.9374C21.6375 25.2612 21.6129 25.5931 21.5124 25.9056C21.412 26.2181 21.2385 26.5021 21.0064 26.7342C20.8146 26.9261 20.5868 27.0783 20.3361 27.1822C20.0854 27.286 19.8167 27.3395 19.5453 27.3395C19.274 27.3395 19.0053 27.286 18.7546 27.1822C18.5039 27.0783 18.2761 26.9261 18.0843 26.7342C17.8923 26.5423 17.7401 26.3145 17.6362 26.0638C17.5323 25.8131 17.4788 25.5444 17.4788 25.273C17.4788 25.0016 17.5323 24.7329 17.6362 24.4821C17.7401 24.2314 17.8923 24.0036 18.0843 23.8118C18.2778 23.6177 18.5081 23.4642 18.7616 23.3601V15.9565C18.5081 15.853 18.2778 15.6998 18.0843 15.506C17.7945 15.2159 17.5975 14.8461 17.5182 14.4438C17.439 14.0414 17.4812 13.6246 17.6393 13.2462L14.5819 10.1888L6.50888 18.2606C6.34753 18.4219 6.21954 18.6134 6.13221 18.8242C6.04489 19.0349 5.99994 19.2608 5.99994 19.489C5.99994 19.7171 6.04489 19.943 6.13221 20.1538C6.21954 20.3645 6.34753 20.556 6.50888 20.7173L18.2835 32.4922C18.6093 32.8177 19.051 33.0005 19.5114 33.0005C19.9719 33.0005 20.4136 32.8177 20.7394 32.4922L32.4588 20.7725C32.7842 20.4465 32.9669 20.0047 32.9669 19.5441C32.9669 19.0836 32.7842 18.6418 32.4588 18.3158Z" fill="white"/>
</svg>
