<svg width="39" height="39" viewBox="0 0 39 39" fill="none" xmlns="http://www.w3.org/2000/svg">
<rect width="39" height="39" fill="#505050"/>
<path d="M28.54 22H24C23.4696 22 22.9609 22.2107 22.5858 22.5858C22.2107 22.9609 22 23.4696 22 24V28.54" stroke="white" stroke-width="2" stroke-linecap="round" stroke-linejoin="round"/>
<path d="M14 10.34V12C14 12.7957 14.3161 13.5587 14.8787 14.1213C15.4413 14.684 16.2044 15 17 15C17.5304 15 18.0391 15.2107 18.4142 15.5858C18.7893 15.9609 19 16.4696 19 17C19 18.1 19.9 19 21 19C21.5304 19 22.0391 18.7893 22.4142 18.4142C22.7893 18.0392 23 17.5305 23 17C23 15.9 23.9 15 25 15H28.17" stroke="white" stroke-width="2" stroke-linecap="round" stroke-linejoin="round"/>
<path d="M18 28.95V25C18 24.4696 17.7893 23.9609 17.4142 23.5858C17.0391 23.2107 16.5304 23 16 23C15.4696 23 14.9608 22.7893 14.5858 22.4142C14.2107 22.0391 14 21.5304 14 21V20C14 19.4696 13.7893 18.9609 13.4142 18.5858C13.0391 18.2107 12.5304 18 12 18H9.04999" stroke="white" stroke-width="2" stroke-linecap="round" stroke-linejoin="round"/>
<path d="M19 29C24.5228 29 29 24.5228 29 19C29 13.4772 24.5228 9 19 9C13.4772 9 9 13.4772 9 19C9 24.5228 13.4772 29 19 29Z" stroke="white" stroke-width="2" stroke-linecap="round" stroke-linejoin="round"/>
</svg>
