<svg width="39" height="39" viewBox="0 0 39 39" fill="none" xmlns="http://www.w3.org/2000/svg">
<rect width="39" height="39" fill="#505050"/>
<path d="M11 14C12.5368 14 13.9385 14.5781 15 15.5283C13.7727 16.627 13 18.2231 13 20C13 21.7766 13.7729 23.3721 15 24.4707C13.9384 25.4212 12.5371 26 11 26C7.68629 26 5 23.3137 5 20C5 16.6863 7.68629 14 11 14ZM19 14C20.5368 14 21.9385 14.5781 23 15.5283C21.7727 16.627 21 18.2231 21 20C21 21.7766 21.7729 23.3721 23 24.4707C21.9384 25.4212 20.5371 26 19 26C17.4629 26 16.0616 25.4212 15 24.4707C16.2271 23.3721 17 21.7766 17 20C17 18.2231 16.2273 16.627 15 15.5283C16.0615 14.5781 17.4632 14 19 14ZM27 14C30.3137 14 33 16.6863 33 20C33 23.3137 30.3137 26 27 26C25.4629 26 24.0616 25.4212 23 24.4707C24.2271 23.3721 25 21.7766 25 20C25 18.2231 24.2273 16.627 23 15.5283C24.0615 14.5781 25.4632 14 27 14Z" fill="white"/>
</svg>
