<svg width="39" height="39" viewBox="0 0 39 39" fill="none" xmlns="http://www.w3.org/2000/svg">
<rect width="39" height="39" fill="#505050"/>
<path d="M16.2593 6H32L31.056 6.79277C31.056 6.82877 31.0741 6.864 31.0741 6.9V11.6514C31.6296 11.9574 32 12.534 32 13.2V18.6C32 19.59 31.1667 20.4 30.1481 20.4C29.1296 20.4 28.2963 19.59 28.2963 18.6V13.2C28.2963 12.534 28.6667 11.9574 29.2222 11.6514V8.31328L25.8983 11.0854C26.2224 11.7154 26.4444 12.4802 26.4444 13.4162C26.4444 15.8642 25.0377 17.0788 23.6395 18.1588C23.2044 18.5908 22.6937 19.0593 22.6937 19.7883C22.6937 20.5083 23.2041 20.9136 23.5744 21.2016L24.768 22.1279C26.2402 23.3519 27.5747 24.4775 27.5747 26.7545C27.5747 29.8595 24.5282 33 18.7875 33C13.9449 33 11.6115 30.723 11.6115 28.275C11.6115 27.087 12.2127 25.4036 14.185 24.2426C16.2498 22.9916 19.0559 22.8211 20.5652 22.7221C20.093 22.1281 19.5561 21.5071 19.5561 20.4721C19.5561 19.9231 19.7312 19.5904 19.8979 19.1854C19.5275 19.2214 19.157 19.2574 18.8236 19.2574C15.3051 19.2574 13.2956 16.665 13.2771 14.1H7L16.2593 6ZM19.2866 8.91621C18.4255 8.91621 17.4907 9.33984 16.9537 10.0148C16.3889 10.6988 16.2122 11.5891 16.2122 12.4441C16.2122 14.6581 17.5286 18.3293 20.3898 18.3293C21.2323 18.3293 22.1296 17.9339 22.6666 17.4029C23.4259 16.6379 23.5003 15.585 23.5003 15C23.5003 12.615 22.0644 8.91621 19.2866 8.91621ZM20.9251 23.6484C20.6288 23.6484 18.8239 23.7113 17.4257 24.1793C16.685 24.4493 14.5557 25.2334 14.5557 27.5824C14.5557 29.9314 16.8519 31.6148 20.4259 31.6148C23.6389 31.6148 25.3341 30.0842 25.3341 28.0412C25.3341 26.3582 24.2415 25.4674 21.7045 23.6854C21.436 23.6494 21.2677 23.6484 20.9251 23.6484Z" fill="white"/>
</svg>
